<svg width="90" height="110" viewBox="0 0 90 110" fill="none" xmlns="http://www.w3.org/2000/svg">
<path fill-rule="evenodd" clip-rule="evenodd" d="M10 6C10 8.20914 11.7909 10 14 10H48.3438C49.4044 10.0002 50.4219 10.4219 51.1719 11.1719L68.8281 28.8281C69.5781 29.5781 69.9998 30.5956 70 31.6562V46C70 48.2091 71.7909 50 74 50H86C88.2091 50 90 51.7909 90 54V90C90 101.046 81.0457 110 70 110H14C11.7909 110 10 108.209 10 106V94C10 91.7909 8.20914 90 6 90H4C1.79086 90 1.12747e-07 88.2091 0 86V34C0 31.7909 1.79086 30 4 30H6C8.20914 30 10 28.2091 10 26V14C10 11.7909 8.20914 10 6 10H5C2.23858 10 0 7.76142 0 5C0 2.23858 2.23858 0 5 0C7.76142 0 10 2.23858 10 5V6ZM14 30C11.7909 30 10 31.7909 10 34V86C10 88.2091 11.7909 90 14 90H66C68.2091 90 70 88.2091 70 86V54C70 51.7909 68.2091 50 66 50H54C51.7909 50 50 48.2091 50 46V34C50 31.7909 48.2091 30 46 30H14Z" fill="url(#paint0_linear_1_3)"/>
<defs>
<linearGradient id="paint0_linear_1_3" x1="0" y1="0" x2="100" y2="146" gradientUnits="userSpaceOnUse">
<stop stop-color="#0E1AFD"/>
<stop offset="1" stop-color="#E4BFF1"/>
</linearGradient>
</defs>
</svg>
